<svg xmlns="http://www.w3.org/2000/svg" xmlns:xlink="http://www.w3.org/1999/xlink" width="1920" zoomAndPan="magnify" viewBox="0 0 1440 809.999993" height="1080" preserveAspectRatio="xMidYMid meet" version="1.2"><g id="bad9b8ce67"><path style=" stroke:none;fill-rule:nonzero;fill:#ffffff;fill-opacity:1;" d="M 969.125 388.265625 C 962.984375 388.265625 956.492188 386.386719 950.398438 382.652344 C 947.300781 380.753906 946.328125 376.707031 948.226562 373.609375 C 950.125 370.511719 954.171875 369.539062 957.269531 371.4375 C 965.621094 376.554688 972.726562 375.605469 976.585938 373.003906 C 979.542969 371.015625 980.925781 367.980469 980.386719 364.683594 C 979.171875 357.304688 966.863281 357.535156 966.742188 357.539062 C 964.226562 357.621094 961.917969 356.285156 960.734375 354.074219 C 959.550781 351.867188 959.734375 349.179688 961.1875 347.144531 L 970.097656 334.65625 L 955.042969 334.65625 C 951.410156 334.65625 948.46875 331.710938 948.46875 328.078125 C 948.46875 324.445312 951.410156 321.503906 955.042969 321.503906 L 982.867188 321.503906 C 985.332031 321.503906 987.585938 322.878906 988.714844 325.070312 C 989.84375 327.257812 989.652344 329.894531 988.222656 331.898438 L 978.078125 346.125 C 985.015625 348.410156 991.835938 353.261719 993.367188 362.546875 C 994.742188 370.890625 991.125 379.078125 983.933594 383.917969 C 979.613281 386.824219 974.507812 388.265625 969.128906 388.265625 Z M 969.125 388.265625 "/><path style=" stroke:none;fill-rule:nonzero;fill:#ffffff;fill-opacity:1;" d="M 875.304688 335.195312 C 849.125 335.195312 826.519531 350.496094 815.9375 372.636719 C 804.214844 351.171875 781.433594 336.605469 755.253906 336.605469 C 717.09375 336.605469 686.160156 367.542969 686.160156 405.703125 C 686.160156 443.863281 717.09375 474.796875 755.253906 474.796875 C 770.191406 474.796875 783.851562 470.21875 795.015625 462.417969 C 795.078125 462.375 795.144531 462.335938 795.207031 462.292969 C 802.59375 457.097656 804.371094 446.902344 799.179688 439.511719 C 793.984375 432.128906 783.785156 430.347656 776.398438 435.542969 L 776.398438 435.457031 C 770.496094 439.632812 763.238281 442.09375 755.257812 442.09375 C 735.15625 442.09375 718.863281 425.800781 718.863281 405.699219 C 718.863281 385.597656 735.15625 369.304688 755.257812 369.304688 C 764.410156 369.304688 772.769531 372.691406 779.167969 378.273438 L 779.167969 378.261719 C 779.214844 378.308594 779.261719 378.351562 779.3125 378.398438 C 783.1875 381.816406 786.328125 386.046875 788.472656 390.824219 C 794.371094 402.082031 797.871094 415.550781 809.542969 427.277344 L 809.542969 504.527344 C 809.542969 513.65625 816.945312 521.054688 826.074219 521.054688 C 835.203125 521.054688 842.605469 513.65625 842.605469 504.527344 L 842.605469 458.03125 C 852.238281 463.5625 863.40625 466.730469 875.3125 466.730469 C 911.632812 466.730469 941.078125 437.28125 941.078125 400.960938 C 941.078125 364.640625 911.632812 335.195312 875.3125 335.195312 Z M 875.304688 433.667969 C 857.238281 433.667969 842.597656 419.023438 842.597656 400.960938 C 842.597656 382.898438 857.242188 368.253906 875.304688 368.253906 C 893.367188 368.253906 908.011719 382.898438 908.011719 400.960938 C 908.011719 419.023438 893.367188 433.667969 875.304688 433.667969 Z M 875.304688 433.667969 "/><path style=" stroke:none;fill-rule:nonzero;fill:#23eb02;fill-opacity:1;" d="M 540.894531 409.191406 C 547.8125 409.191406 552.296875 401.90625 549.1875 395.734375 L 534.308594 366.175781 C 531.199219 360 535.6875 352.714844 542.601562 352.714844 L 586.171875 352.714844 C 589.28125 352.714844 592.179688 351.160156 593.902344 348.570312 L 623.964844 303.363281 C 628.070312 297.191406 623.644531 288.933594 616.230469 288.933594 L 552.90625 288.933594 C 549.707031 288.933594 546.742188 290.578125 545.042969 293.28125 L 509.625 349.683594 C 507.878906 352.46875 507.730469 355.964844 509.242188 358.886719 L 532.644531 404.171875 C 534.238281 407.253906 537.421875 409.191406 540.894531 409.191406 Z M 540.894531 409.191406 "/><path style=" stroke:none;fill-rule:nonzero;fill:#23eb02;fill-opacity:1;" d="M 588.839844 424.488281 C 585.0625 418.628906 576.421875 418.867188 572.964844 424.921875 L 556.816406 453.242188 C 553.367188 459.292969 544.722656 459.53125 540.941406 453.675781 L 517.199219 416.875 C 515.511719 414.261719 512.632812 412.664062 509.523438 412.621094 L 455.785156 411.867188 C 448.371094 411.765625 443.828125 419.960938 447.847656 426.195312 L 482.507812 479.914062 C 484.238281 482.597656 487.234375 484.203125 490.429688 484.164062 L 556.378906 483.339844 C 559.710938 483.296875 562.761719 481.476562 564.382812 478.566406 L 589.152344 434.035156 C 590.820312 431.039062 590.699219 427.367188 588.839844 424.484375 Z M 588.839844 424.488281 "/><path style=" stroke:none;fill-rule:nonzero;fill:#23eb02;fill-opacity:1;" d="M 579.628906 376.976562 C 575.855469 382.828125 579.5625 390.605469 586.480469 391.359375 L 618.691406 394.859375 C 625.613281 395.609375 629.324219 403.390625 625.546875 409.238281 L 601.707031 446.1875 C 600.03125 448.785156 599.746094 452.042969 600.945312 454.890625 L 621.886719 504.703125 C 624.800781 511.640625 634.300781 512.472656 638.378906 506.152344 L 672.84375 452.734375 C 674.566406 450.066406 674.8125 446.707031 673.511719 443.808594 L 646.101562 383.097656 C 644.726562 380.042969 641.816406 377.957031 638.484375 377.628906 L 588.40625 372.738281 C 584.917969 372.394531 581.53125 374.03125 579.632812 376.976562 Z M 579.628906 376.976562 "/></g></svg>